<?xml version="1.0" encoding="UTF-8" standalone="no"?>
<svg
   xmlns:dc="http://purl.org/dc/elements/1.1/"
   xmlns:cc="http://creativecommons.org/ns#"
   xmlns:rdf="http://www.w3.org/1999/02/22-rdf-syntax-ns#"
   xmlns:svg="http://www.w3.org/2000/svg"
   xmlns="http://www.w3.org/2000/svg"
   xmlns:sodipodi="http://sodipodi.sourceforge.net/DTD/sodipodi-0.dtd"
   xmlns:inkscape="http://www.inkscape.org/namespaces/inkscape"
   sodipodi:docname="logo2.svg"
   inkscape:version="1.0 (4035a4fb49, 2020-05-01)"
   id="svg856"
   version="1.1"
   viewBox="0 0 39.687499 39.687501"
   height="150"
   width="150">
  <defs
     id="defs850" />
  <sodipodi:namedview
     inkscape:window-maximized="1"
     inkscape:window-y="97"
     inkscape:window-x="1912"
     inkscape:window-height="1017"
     inkscape:window-width="1920"
     units="px"
     showgrid="false"
     inkscape:document-rotation="0"
     inkscape:current-layer="layer1"
     inkscape:document-units="mm"
     inkscape:cy="85.598685"
     inkscape:cx="153.78644"
     inkscape:zoom="3.959798"
     inkscape:pageshadow="2"
     inkscape:pageopacity="0.0"
     borderopacity="1.0"
     bordercolor="#666666"
     pagecolor="#ffffff"
     id="base" />
  <metadata
     id="metadata853">
    <rdf:RDF>
      <cc:Work
         rdf:about="">
        <dc:format>image/svg+xml</dc:format>
        <dc:type
           rdf:resource="http://purl.org/dc/dcmitype/StillImage" />
        <dc:title></dc:title>
      </cc:Work>
    </rdf:RDF>
  </metadata>
  <g
     id="layer1"
     inkscape:groupmode="layer"
     inkscape:label="Vrstva 1">
    <path
       inkscape:connector-curvature="0"
       id="path1284"
       d="M 88.593834,127.8226 C 80.241832,119.97694 77.685163,117.57135 77.574163,117.4542 l -0.130749,-0.13802 0.01209,-5.6845 0.01209,-5.68452 2.100889,-0.0124 2.1009,-0.0124 v 4.88072 4.88072 l 1.766681,1.65985 c 0.97168,0.91291 2.8505,2.67938 4.175149,3.92547 l 2.408471,2.26564 4.252068,-4.01477 4.252071,-4.01475 0.01201,-11.21234 0.01191,-11.212318 22.231507,-0.012 c 12.22734,-0.007 22.23152,-0.0293 22.23152,-0.0506 0,-0.0213 0.38992,-0.0387 0.86647,-0.0388 0.92879,0 1.37407,-0.0581 2.13179,-0.27775 2.11286,-0.61256 3.82299,-2.2214 4.49245,-4.22635 0.3977,-1.19108 0.3977,-2.65464 0,-3.84572 -0.67964,-2.03543 -2.40773,-3.640928 -4.5708,-4.24652 -0.72824,-0.20388 -1.23532,-0.26462 -2.14838,-0.257368 l -0.819,0.007 v -3.95814 -3.958141 l 0.12632,-0.0317 c 0.20519,-0.0515 2.27254,0.02109 2.86479,0.10061 3.60618,0.484119 6.69695,1.976829 9.14195,4.415189 2.1936,2.187671 3.6073,4.968402 4.03128,7.92957 0.0805,0.56237 0.16799,1.86943 0.14209,2.12342 -0.009,0.0855 -0.0283,0.40121 -0.0436,0.70151 -0.13681,2.68648 -1.25052,5.51359 -3.06735,7.78638 -0.75028,0.93857 -1.94074,2.0562 -2.97347,2.79156 -2.09713,1.49329 -4.58738,2.450368 -7.25458,2.788148 -1.32316,0.16757 -2.69724,0.17926 -23.09398,0.19616 l -20.10285,0.0166 0.0323,8.03756 0.0323,8.03757 -1.02931,0.97126 c -0.56613,0.53418 -3.433978,3.24128 -6.373007,6.01576 -2.939018,2.7745 -5.35631,5.04453 -5.371719,5.04453 -0.0154,0 -0.659199,-0.59288 -1.430599,-1.31751 z m -0.585711,-16.90602 c -0.01331,-0.0347 -0.02421,-2.27278 -0.02421,-4.97332 v -4.91008 h -21.78241 c -18.355175,0 -21.823169,-0.0103 -22.041612,-0.0654 -0.142576,-0.036 -0.515614,-0.0796 -0.828966,-0.0968 -1.732698,-0.0953 -3.861973,-0.43706 -5.792302,-0.929538 -7.483594,-1.90926 -13.940918,-6.45793 -18.029733,-12.7005 -2.049881,-3.12963 -3.42016,-6.541607 -4.090374,-10.184957 -0.512854,-2.78797 -0.572584,-5.90438 -0.166961,-8.711229 1.065478,-7.372889 5.075484,-14.010407 11.2722,-18.658207 3.101083,-2.325928 6.527438,-4.00717 10.350682,-5.078831 3.173287,-0.889468 6.30384,-1.258059 9.827756,-1.157107 0.950182,0.0272 2.877373,0.179707 3.22816,0.255428 0.07571,0.0163 0.176189,-0.0917 0.49652,-0.534379 2.087795,-2.88495 5.191249,-6.109731 8.257733,-8.580572 5.420281,-4.367398 11.837265,-7.556159 18.736297,-9.310508 1.10912,-0.282022 3.492569,-0.787331 4.039539,-0.856382 l 0.24216,-0.0306 -0.02339,19.47113 c -0.01381,11.427727 -0.006,19.471087 0.019,19.471087 0.02331,0 0.40563,-0.0411 0.8495,-0.0913 0.443881,-0.0503 1.18095,-0.119661 1.637919,-0.1543 1.089523,-0.0826 4.696122,-0.0832 5.721091,-0.0021 2.798188,0.224621 5.526918,0.684631 7.814397,1.31739 0.419571,0.116059 0.771861,0.211021 0.782852,0.211021 0.01101,0 0.02,-9.037421 0.02,-20.083137 v -20.08315 h 0.136088 c 0.294971,0 2.434391,0.441359 3.820511,0.78817 6.12889,1.533451 11.96273,4.24534 16.98115,7.89378 2.12974,1.548339 3.68566,2.882 5.65486,4.847111 1.41167,1.4087 2.12921,2.19234 3.13093,3.419269 2.17594,2.665171 3.79839,5.15431 5.36581,8.232081 l 0.64946,1.275268 0.70345,0.326382 c 2.59777,1.205289 5.22157,2.93846 7.40358,4.890506 2.9568,2.64518 5.38574,5.897668 6.97975,9.3463 0.19557,0.423098 0.35558,0.794269 0.35558,0.82481 0,0.0421 -1.12988,0.0534 -4.66471,0.0467 l -4.6647,-0.009 -0.2573,-0.370951 c -0.53018,-0.764331 -1.19476,-1.624129 -1.69963,-2.198841 -3.60814,-4.107429 -8.62185,-6.73308 -14.18554,-7.428879 -1.87308,-0.234241 -4.04214,-0.230851 -5.91101,0.009 -0.35252,0.0453 -0.74313,0.0828 -0.86801,0.0833 l -0.22706,0.0021 -0.26445,-0.64095 c -0.14544,-0.352531 -0.2943,-0.721342 -0.33077,-0.8196 -0.0365,-0.0982 -0.0872,-0.215757 -0.11265,-0.261125 -0.0255,-0.0454 -0.10122,-0.221351 -0.16833,-0.391081 -0.0671,-0.169741 -0.14091,-0.351329 -0.16404,-0.403561 -0.0231,-0.0522 -0.0987,-0.233839 -0.16803,-0.403558 -0.0693,-0.169741 -0.15334,-0.3727 -0.18673,-0.451041 -0.0334,-0.0784 -0.10858,-0.25995 -0.16707,-0.403571 -0.0585,-0.143619 -0.13512,-0.325229 -0.17027,-0.403551 -0.0351,-0.0784 -0.1195,-0.281318 -0.18744,-0.451038 -0.0679,-0.169751 -0.15226,-0.37271 -0.18743,-0.45104 -0.0351,-0.0784 -0.11105,-0.259951 -0.16865,-0.403572 -0.0576,-0.143629 -0.13351,-0.325228 -0.16864,-0.403548 -0.0352,-0.0784 -0.11951,-0.281331 -0.18744,-0.45104 -0.0679,-0.169751 -0.15196,-0.372711 -0.18671,-0.451051 -0.28388,-0.63994 -0.26919,-0.587539 -0.17832,-0.63618 0.12026,-0.0644 1.41569,-0.311629 2.3591,-0.45031 1.75866,-0.258519 3.87522,-0.38526 5.52675,-0.330931 0.82654,0.0272 0.96299,0.02209 0.92867,-0.035 -0.10441,-0.17358 -1.01799,-1.366279 -1.46952,-1.918509 -1.57776,-1.929551 -3.59935,-3.942271 -5.54034,-5.51606 -3.35317,-2.718821 -7.23169,-4.93912 -11.24381,-6.436662 -0.71913,-0.268409 -1.96642,-0.700169 -2.02269,-0.700169 -0.0103,0 -0.0189,7.314321 -0.0189,16.25405 v 16.254037 l 0.67655,0.298169 c 0.94249,0.41538 2.7633,1.335982 3.6622,1.85161 4.49834,2.580312 8.44167,6.043422 11.47057,10.0736 0.81152,1.07981 1.94741,2.78511 1.94741,2.923662 0,0.0276 -0.11217,0.108519 -0.24926,0.179789 -0.13709,0.0713 -0.35609,0.188551 -0.48665,0.260599 -0.24287,0.134009 -0.43807,0.239729 -1.18695,0.642819 -0.23503,0.1265 -0.51277,0.27728 -0.61721,0.33507 -0.10445,0.0578 -0.37152,0.20162 -0.59347,0.31957 -0.22197,0.11797 -0.49971,0.26911 -0.61721,0.33586 -0.11752,0.0667 -0.25656,0.14057 -0.30899,0.16409 -0.0524,0.0235 -0.20408,0.10683 -0.33698,0.1852 -0.44117,0.26012 -0.3863,0.29039 -0.90065,-0.49687 -4.06982,-6.229176 -10.15071,-10.841316 -17.420807,-13.212996 -6.109869,-1.99321 -12.938159,-2.221601 -19.23493,-0.643361 -2.43222,0.609611 -4.609079,1.41069 -6.866229,2.526721 -0.54542,0.269689 -1.008689,0.490331 -1.02948,0.490331 -0.035,0 -0.40503,-0.549453 -0.591521,-0.878332 -0.0444,-0.0783 -0.202579,-0.33867 -0.351449,-0.57848 -0.148881,-0.239818 -0.36476,-0.592349 -0.47974,-0.783389 -0.115001,-0.19104 -0.33015,-0.528939 -0.478131,-0.750911 -0.14799,-0.221949 -0.363699,-0.559531 -0.479359,-0.750168 -0.115671,-0.190632 -0.270359,-0.44496 -0.343771,-0.56515 -0.104759,-0.17154 -0.12007,-0.227402 -0.0712,-0.259781 0.19485,-0.129151 2.036829,-1.032172 2.74474,-1.345581 1.963909,-0.869479 4.15771,-1.63367 6.136521,-2.137569 l 0.7003,-0.178332 V 48.848089 c 0,-8.404471 -0.006,-15.28087 -0.01341,-15.28087 -0.0433,0 -1.766398,0.594061 -2.252819,0.776679 -3.45231,1.296152 -6.90567,3.18933 -9.87317,5.412621 -1.668555,1.250101 -2.742706,2.18321 -4.267547,3.707199 -1.020913,1.020342 -2.474251,2.621082 -2.424705,2.670622 0.01035,0.01029 0.35256,0.176239 0.760404,0.368589 1.605725,0.757311 3.410749,1.82527 4.848601,2.86875 0.913236,0.662749 2.724817,2.158531 2.965537,2.44857 0.0724,0.0872 0.005,0.158099 -1.374999,1.450301 -0.348621,0.326419 -0.731891,0.68961 -0.851731,0.807119 -0.119841,0.117509 -0.494427,0.47003 -0.832422,0.783392 -0.338005,0.313346 -0.71257,0.665874 -0.832379,0.783375 -0.119803,0.117499 -0.504296,0.480719 -0.854422,0.80712 -0.35012,0.326419 -0.741235,0.696118 -0.869132,0.821571 -0.272312,0.26711 -0.163121,0.311578 -0.989436,-0.402911 -2.249707,-1.945229 -4.809135,-3.394456 -7.650972,-4.332226 -3.311067,-1.092621 -6.82358,-1.422871 -10.389092,-0.976839 -6.643605,0.831109 -12.604593,4.574876 -16.080355,10.099175 -0.537003,0.853509 -1.380183,2.544191 -1.73538,3.479681 -0.877744,2.311709 -1.278669,4.513408 -1.279543,7.026738 -7.68e-4,3.109581 0.619476,5.84156 1.957389,8.61722 1.070221,2.220307 2.366365,4.007537 4.235952,5.840887 3.294762,3.23091 7.535724,5.34203 12.24894,6.09748 1.010597,0.162 1.989481,0.24204 3.521744,0.288 0.846249,0.0254 11.190007,0.0449 24.136887,0.0455 15.778772,0.002 22.665381,0.0163 22.686852,0.051 0.01699,0.0274 0.01511,4.05431 -0.005,8.948618 l -0.035,8.89873 -2.081499,0.0128 c -1.698569,0.0105 -2.08598,0.002 -2.105771,-0.0504 z M 120.52997,27.744759 c -1.15946,-0.517999 -3.69885,-1.486969 -5.43622,-2.074331 -6.95642,-2.351799 -14.05108,-3.666249 -21.69739,-4.019979 -1.314588,-0.0608 -5.422747,-0.061 -6.741867,0 -9.40231,0.432819 -18.13279,2.356239 -26.555506,5.850451 l -1.036154,0.42984 -0.222009,-0.214011 c -0.122113,-0.117689 -0.820229,-0.77484 -1.551392,-1.460331 -0.73116,-0.68548 -1.329383,-1.268079 -1.329383,-1.294638 0,-0.0265 0.384566,-0.217972 0.854604,-0.42537 8.692279,-3.835242 18.182561,-6.14689 27.727079,-6.753831 3.637391,-0.231291 7.400571,-0.231109 10.991128,0 8.51872,0.54956 16.92647,2.42965 24.83094,5.552561 1.14726,0.453258 2.78528,1.144419 3.53301,1.49074 l 0.42322,0.196019 -0.11461,0.12991 c -0.063,0.0714 -0.145,0.149119 -0.18214,0.17258 -0.0372,0.02349 -0.16591,0.141041 -0.28613,0.26126 -0.12021,0.120211 -0.50538,0.48563 -0.85595,0.812051 -0.35054,0.326409 -0.70248,0.657569 -0.78206,0.73591 -0.49187,0.484201 -0.90894,0.830418 -0.99617,0.826929 -0.054,-0.0021 -0.31187,-0.0994 -0.573,-0.216041 z M 83.758343,13.65568 v -1.96479 l 0.106828,-0.0287 c 0.140132,-0.0375 12.396859,-0.0386 12.49467,-0.0021 0.0668,0.02561 0.0751,0.245819 0.0751,1.994059 V 15.6194 h -6.338287 -6.338311 z m 0.0217,-4.02935 c -0.01249,-0.0327 -0.0172,-0.92466 -0.01029,-1.982201 l 0.01241,-1.92279 6.326431,-0.0121 6.326428,-0.0121 v 1.99424 1.994238 h -6.316049 c -5.012581,0 -6.320761,-0.0122 -6.33885,-0.0594 z m 0,-5.934731 c -0.01249,-0.0327 -0.0172,-0.92466 -0.01029,-1.9822 l 0.01241,-1.92279999 6.326431,-0.0121 6.326428,-0.0121 V 1.756649 3.750889 h -6.316049 c -5.012581,0 -6.320761,-0.0122 -6.33885,-0.0594 z m 5.125551,-6.14016 c -4.650809,-0.63279 -7.889,-4.788051 -7.118419,-9.134395 0.52891,-2.983249 2.832849,-5.449091 5.898049,-6.312521 0.745749,-0.21006 1.273411,-0.290754 2.102811,-0.321531 2.523029,-0.09365 4.866658,0.833701 6.580137,2.603652 2.264799,2.339486 2.821749,5.7232658 1.41863,8.618987 -0.58528,1.207887 -1.634199,2.390522 -2.826399,3.186738 -1.700802,1.13588 -3.963048,1.64367 -6.054809,1.35907 z m 2.17157,-4.006129 c 1.538449,-0.340223 2.756498,-1.480223 3.128158,-2.9277143 0.118851,-0.4628607 0.130591,-1.2895997 0.02479,-1.7457867 -0.287301,-1.238823 -1.223569,-2.306399 -2.453397,-2.797452 -0.530871,-0.211983 -0.849302,-0.277931 -1.466432,-0.303677 -1.014698,-0.04234 -1.818018,0.175148 -2.6182,0.708882 -1.13882,0.75962 -1.76716,1.903816 -1.76716,3.217998 0,0.5763388 0.0644,0.9124189 0.27414,1.4318248 0.487881,1.2078562 1.643832,2.1401832 3.019232,2.4351032 0.463198,0.09934 1.365078,0.09002 1.858859,-0.01916 z"
       style="fill:#ffffff;stroke-width:0.0474779"
       sodipodi:nodetypes="scccccccccccccccssccscscccccccccscscscccsssscscscccssssscccscccsscsscsscsssscccssssscccccccccscccsscscscsccsccccsssccccssccscscscsscsccssscccscsscsccccccccccccsscsssccsccccccccscccccsscsccccccscccccccccscccccccccccsccccccccscsccscscsccccsssccc" />
    <path
       inkscape:connector-curvature="0"
       id="path1284-3"
       d="m 20.359726,39.115093 c -2.220934,-2.086291 -2.900795,-2.725977 -2.930311,-2.757128 l -0.03477,-0.0367 0.0032,-1.511602 0.0032,-1.511607 0.558661,-0.0033 0.558664,-0.0033 v 1.297864 1.297863 l 0.469789,0.441382 c 0.258386,0.242758 0.757995,0.712491 1.110241,1.043847 l 0.640452,0.602468 1.130694,-1.06759 1.130696,-1.067588 0.0032,-2.981546 0.0032,-2.981539 5.911724,-0.0032 c 3.25145,-0.0018 5.911726,-0.0077 5.911726,-0.01345 0,-0.0056 0.103686,-0.01029 0.230408,-0.01032 0.246981,0 0.365388,-0.01545 0.566878,-0.07386 0.561844,-0.16289 1.016596,-0.590707 1.194616,-1.123856 0.105756,-0.316728 0.105756,-0.705913 0,-1.022641 -0.180727,-0.541254 -0.640255,-0.968181 -1.21545,-1.129218 -0.193651,-0.05421 -0.328493,-0.07037 -0.57129,-0.06844 l -0.217785,0.0018 v -1.052535 -1.052535 l 0.03359,-0.0084 c 0.05456,-0.0137 0.604306,0.0056 0.761794,0.02675 0.958943,0.128735 1.78083,0.525672 2.430995,1.174071 0.583314,0.581738 0.95924,1.32118 1.071984,2.108604 0.02141,0.149543 0.04467,0.497112 0.03779,0.564652 -0.0024,0.02273 -0.0076,0.106688 -0.01159,0.186542 -0.03638,0.714379 -0.332533,1.466155 -0.815658,2.070527 -0.199512,0.249581 -0.516074,0.546777 -0.790694,0.742322 -0.557662,0.397089 -1.21986,0.651593 -1.929113,0.741414 -0.35185,0.04456 -0.71724,0.04767 -6.141068,0.05216 l -5.345678,0.0045 0.0086,2.13732 0.0086,2.137321 -0.273711,0.258274 c -0.150543,0.142047 -0.913151,0.86191 -1.694687,1.599687 -0.781533,0.737788 -1.424331,1.341426 -1.428428,1.341426 -0.0041,0 -0.175292,-0.157657 -0.38042,-0.350348 z m -0.15575,-4.495589 c -0.0036,-0.0092 -0.0064,-0.604369 -0.0064,-1.322487 v -1.305671 h -5.7923 c -4.8809439,0 -5.8031404,-0.0027 -5.8612275,-0.01739 -0.037905,-0.0096 -0.1371031,-0.02116 -0.2204286,-0.02573 C 7.862867,31.922884 7.2966576,31.832001 6.7833513,31.701043 4.7932954,31.193331 3.0761868,29.983765 1.9889038,28.323763 1.4438069,27.491543 1.0794273,26.584242 0.90120644,25.615416 0.76483014,24.874049 0.74894701,24.045345 0.85680879,23.298957 1.1401368,21.338384 2.206463,19.57336 3.8542715,18.337434 c 0.824629,-0.618503 1.7357532,-1.065573 2.7524162,-1.350545 0.8438293,-0.236524 1.6762948,-0.334538 2.6133615,-0.307693 0.2526692,0.0073 0.7651414,0.04779 0.8584218,0.06792 0.02014,0.0044 0.04685,-0.02439 0.132034,-0.1421 0.555178,-0.767156 1.380437,-1.624678 2.195866,-2.281715 1.441342,-1.161363 3.147724,-2.009307 4.982289,-2.475818 0.294933,-0.07499 0.928732,-0.209364 1.07418,-0.227726 l 0.06439,-0.0081 -0.0062,5.177694 c -0.0037,3.03882 -0.0016,5.177681 0.005,5.177681 0.0062,0 0.107864,-0.01093 0.225897,-0.02427 0.118035,-0.01338 0.314034,-0.03182 0.435549,-0.04103 0.289722,-0.02197 1.248776,-0.02212 1.521332,-5.58e-4 0.744084,0.05973 1.469698,0.182055 2.077977,0.350316 0.11157,0.03086 0.20525,0.05611 0.208172,0.05611 0.0029,0 0.0053,-2.403199 0.0053,-5.340436 v -5.34044 h 0.03619 c 0.07844,0 0.647345,0.117365 1.015937,0.209587 1.629774,0.40777 3.181088,1.128906 4.515568,2.099086 0.566333,0.41173 0.980078,0.766371 1.50372,1.288927 0.375386,0.374596 0.566192,0.582979 0.832565,0.909239 0.578619,0.708714 1.010055,1.370616 1.426857,2.189046 l 0.172702,0.339115 0.187059,0.08679 c 0.690791,0.320507 1.388502,0.781385 1.968734,1.300466 0.786261,0.703397 1.432157,1.568287 1.85603,2.485335 0.05201,0.112508 0.09456,0.211208 0.09456,0.21933 0,0.0112 -0.300453,0.0142 -1.240422,0.01242 l -1.24042,-0.0024 -0.06842,-0.09864 c -0.140983,-0.203288 -0.317706,-0.431922 -0.451959,-0.584748 -0.959464,-1.092233 -2.292692,-1.790436 -3.772168,-1.975461 -0.498083,-0.06229 -1.074871,-0.06139 -1.571835,0.0024 -0.09374,0.01205 -0.19761,0.02202 -0.230818,0.02215 l -0.06037,5.59e-4 -0.07032,-0.170439 c -0.03868,-0.09374 -0.07826,-0.191817 -0.08796,-0.217945 -0.0097,-0.02611 -0.02319,-0.05737 -0.02996,-0.06944 -0.0068,-0.01207 -0.02692,-0.05886 -0.04476,-0.103995 -0.01784,-0.04514 -0.03747,-0.09342 -0.04362,-0.107313 -0.0061,-0.01388 -0.02625,-0.06218 -0.04468,-0.107312 -0.01842,-0.04514 -0.04078,-0.09911 -0.04965,-0.11994 -0.0089,-0.02084 -0.02887,-0.06913 -0.04443,-0.107316 -0.01556,-0.03819 -0.03594,-0.08649 -0.04527,-0.107311 -0.0093,-0.02084 -0.03178,-0.07481 -0.04985,-0.119939 -0.01806,-0.04514 -0.04049,-0.09911 -0.04985,-0.119938 -0.0093,-0.02084 -0.02953,-0.06913 -0.04485,-0.107316 -0.01531,-0.03819 -0.0355,-0.08649 -0.04485,-0.107311 -0.0094,-0.02084 -0.03178,-0.07481 -0.04985,-0.119939 -0.01806,-0.04514 -0.04041,-0.09911 -0.04965,-0.119941 -0.07549,-0.170171 -0.07158,-0.156237 -0.04741,-0.169172 0.03197,-0.01713 0.376455,-0.08286 0.627323,-0.119744 0.467657,-0.06874 1.030484,-0.102447 1.469654,-0.088 0.21979,0.0073 0.256075,0.0059 0.246948,-0.0093 -0.02776,-0.04616 -0.2707,-0.363317 -0.390769,-0.510163 -0.419562,-0.513104 -0.957136,-1.04832 -1.473277,-1.466816 -0.891666,-0.722979 -1.923025,-1.313393 -2.989915,-1.711614 -0.191226,-0.07138 -0.522904,-0.186187 -0.537866,-0.186187 -0.0027,0 -0.005,1.944998 -0.005,4.322219 v 4.322215 l 0.179906,0.07929 c 0.250623,0.110457 0.734807,0.35526 0.973839,0.492374 1.196183,0.686147 2.24478,1.607045 3.050214,2.678735 0.215796,0.28714 0.517848,0.740607 0.517848,0.77745 0,0.0074 -0.02983,0.02886 -0.06628,0.04781 -0.03646,0.01896 -0.09469,0.05014 -0.129409,0.0693 -0.06459,0.03564 -0.11649,0.06375 -0.31563,0.170936 -0.06249,0.03364 -0.136353,0.07373 -0.164125,0.0891 -0.02777,0.01537 -0.09879,0.05361 -0.157814,0.08498 -0.05903,0.03137 -0.132881,0.07156 -0.164126,0.08931 -0.03125,0.01774 -0.06822,0.03738 -0.08217,0.04364 -0.01394,0.0063 -0.05427,0.02841 -0.08961,0.04924 -0.117315,0.06917 -0.102723,0.07722 -0.239497,-0.132126 -1.082233,-1.65644 -2.699242,-2.882884 -4.63248,-3.513552 -1.624715,-0.530028 -3.44047,-0.590761 -5.114884,-0.171081 -0.646767,0.162106 -1.22563,0.375125 -1.825843,0.671897 -0.145036,0.07172 -0.268227,0.130387 -0.273755,0.130387 -0.0093,0 -0.107705,-0.146109 -0.157296,-0.233563 -0.01181,-0.02082 -0.05386,-0.09006 -0.09345,-0.153827 -0.03959,-0.06377 -0.097,-0.157516 -0.127571,-0.208316 -0.03058,-0.0508 -0.0878,-0.140654 -0.127143,-0.19968 -0.03936,-0.05902 -0.09672,-0.148789 -0.127469,-0.199482 -0.03076,-0.0507 -0.07189,-0.118322 -0.09142,-0.150283 -0.02786,-0.04561 -0.03192,-0.06047 -0.01894,-0.06908 0.05181,-0.03435 0.541626,-0.274471 0.729871,-0.357812 0.522236,-0.231208 1.105604,-0.43442 1.631801,-0.568415 l 0.186222,-0.04742 v -4.063301 c 0,-2.234887 -0.0015,-4.063434 -0.0036,-4.063434 -0.01152,0 -0.469713,0.157971 -0.599061,0.206532 -0.918026,0.344669 -1.836331,0.848095 -2.625438,1.439304 -0.443696,0.332423 -0.729331,0.580552 -1.13481,0.985806 -0.271478,0.271326 -0.657945,0.696989 -0.64477,0.710162 0.0027,0.0027 0.09375,0.04686 0.202205,0.09802 0.426988,0.20138 0.906973,0.485368 1.289322,0.762846 0.242845,0.176237 0.724574,0.57399 0.788585,0.651116 0.01926,0.02319 0.0014,0.04204 -0.365635,0.385659 -0.09271,0.0868 -0.194622,0.183378 -0.226489,0.214626 -0.03187,0.03125 -0.131476,0.124988 -0.221354,0.208317 -0.08988,0.08332 -0.189485,0.177066 -0.221344,0.208312 -0.03186,0.03125 -0.134101,0.127831 -0.227205,0.214626 -0.0931,0.0868 -0.197106,0.18511 -0.231116,0.218469 -0.07241,0.07103 -0.04337,0.08286 -0.263107,-0.10714 -0.598234,-0.517269 -1.278829,-0.902642 -2.03452,-1.15201 -0.8804674,-0.290546 -1.8145033,-0.378365 -2.7626307,-0.259758 -1.7666437,0.221005 -3.3517682,1.216535 -4.2760307,2.685537 -0.142798,0.226962 -0.3670133,0.676541 -0.461466,0.925304 -0.2334063,0.614721 -0.3400192,1.20019 -0.3402516,1.868524 -2.039e-4,0.82689 0.1647289,1.553368 0.5205019,2.291461 0.2845893,0.590416 0.6292552,1.06567 1.1264088,1.553188 0.8761318,0.859152 2.0038732,1.420534 3.2571952,1.621419 0.2687338,0.04307 0.5290347,0.06436 0.9364894,0.07658 0.2250316,0.0068 2.9756077,0.01194 6.4183957,0.0121 4.195834,5.32e-4 6.027096,0.0044 6.032806,0.01356 0.0046,0.0073 0.004,1.078108 -0.0014,2.379584 l -0.0093,2.366319 -0.553504,0.0034 c -0.451678,0.0028 -0.554696,5.31e-4 -0.559959,-0.01341 z M 28.85207,12.502751 c -0.30832,-0.137744 -0.983586,-0.395409 -1.44558,-0.551599 -1.849827,-0.625382 -3.736415,-0.974915 -5.769694,-1.068978 -0.349571,-0.01617 -1.441997,-0.01622 -1.792773,0 -2.500229,0.115094 -4.821806,0.626563 -7.061545,1.555731 l -0.275531,0.114301 -0.05904,-0.05691 c -0.03247,-0.0313 -0.218108,-0.206042 -0.412536,-0.388326 -0.194427,-0.18228 -0.353504,-0.337203 -0.353504,-0.344265 0,-0.007 0.102262,-0.05796 0.227253,-0.113113 2.31142,-1.019854 4.835041,-1.634558 7.373085,-1.7959535 0.967243,-0.0615 1.967934,-0.06146 2.922722,0 2.265267,0.146137 4.501024,0.6460825 6.602956,1.4765165 0.305074,0.120528 0.740651,0.304319 0.939485,0.396412 l 0.112541,0.05212 -0.03047,0.03454 c -0.01676,0.01899 -0.03856,0.03965 -0.04843,0.04589 -0.0099,0.0062 -0.04412,0.0375 -0.07609,0.06947 -0.03196,0.03197 -0.134389,0.129137 -0.227611,0.215937 -0.09321,0.0868 -0.186801,0.174859 -0.207963,0.195691 -0.130796,0.128757 -0.241702,0.220822 -0.264898,0.219894 -0.01436,-5.58e-4 -0.08293,-0.02643 -0.152369,-0.05745 z M 19.073889,8.7562345 v -0.52247 l 0.02841,-0.0076 c 0.03726,-0.01 3.296528,-0.01026 3.322537,-5.58e-4 0.01777,0.0068 0.01997,0.06537 0.01997,0.530253 v 0.522593 h -1.685454 -1.685461 z m 0.0058,-1.07147 c -0.0033,-0.0087 -0.0046,-0.245882 -0.0027,-0.5271 l 0.0033,-0.511301 1.682302,-0.0032 1.682302,-0.0032 v 0.530301 0.5303 h -1.679542 c -1.332927,0 -1.680794,-0.0032 -1.685604,-0.01579 z m 0,-1.578143 c -0.0033,-0.0087 -0.0046,-0.245882 -0.0027,-0.527099 l 0.0033,-0.511304 1.682302,-0.0032 1.682302,-0.0032 v 0.530304 0.530301 h -1.679542 c -1.332927,0 -1.680794,-0.0032 -1.685604,-0.01579 z M 20.442616,4.4738528 C 19.205889,4.3055835 18.344801,3.2006314 18.549712,2.0448673 c 0.140645,-0.7932949 0.7533,-1.44900273 1.568387,-1.67860293 0.198307,-0.055858 0.338621,-0.077316 0.559172,-0.0855 0.670915,-0.024903 1.294125,0.2216949 1.749766,0.6923539 0.602248,0.62210773 0.75035,1.52191033 0.377238,2.29193003 -0.155636,0.3211969 -0.43456,0.635679 -0.751586,0.8474059 C 21.600418,4.4145033 20.99885,4.549533 20.442616,4.4738528 Z M 21.020072,3.4085573 C 21.42917,3.3180863 21.75307,3.0149417 21.8519,2.6300302 21.88351,2.5069478 21.88663,2.2871043 21.8585,2.1657968 21.78211,1.8363734 21.533133,1.5524874 21.206101,1.4219083 c -0.141167,-0.05637 -0.225844,-0.073907 -0.389948,-0.080753 -0.269826,-0.011259 -0.483441,0.046575 -0.696222,0.1885033 -0.302832,0.2019954 -0.469918,0.506256 -0.469918,0.8557185 0,0.1532581 0.01713,0.2426271 0.0729,0.3807457 0.129736,0.3211887 0.437122,0.5691098 0.802863,0.6475339 0.123172,0.026416 0.362997,0.023938 0.494301,-0.00509 z"
       style="fill:#ffffff;stroke-width:0.0126252"
       sodipodi:nodetypes="scccccccccccccccssccscscccccccccscscscccsssscscscccssssscccscccsscsscsscsssscccssssscccccccccscccsscscscsccsccccsssccccssccscscscsscsccssscccscsscsccccccccccccsscsssccsccccccccscccccsscsccccccscccccccccscccccccccccsccccccccscsccscscsccccsssccc" />
  </g>
</svg>
